<svg xmlns="http://www.w3.org/2000/svg" width="44" height="48" viewBox="0 0 44 48"><path fill="#fff" d="M43.4 23.03h-2.98l-.31-7.45a.63.63 0 0 0-.65-.62h-.71l-.31-.96h4.94c.34 0 .62.26.62.6v7.84a.6.6 0 0 1-.6.59zM5.25 14.96h-.71a.63.63 0 0 0-.65.62l-.31 7.45H.6a.6.6 0 0 1-.6-.6V14.6c0-.34.28-.6.62-.6h4.94zM4 44l7 1-.01 2.2c0 .44-.37.8-.82.8H3.83a.81.81 0 0 1-.82-.8L3 45c0-.54.39-1 1-1zm37 1l-.01 2.2c0 .44-.36.8-.82.8h-6.34a.82.82 0 0 1-.82-.8L33 45l7-1c.61 0 1 .46 1 1zM6.17 14.94c.32-1.07.89-1.97 1.99-1.97h27.68c1.1 0 1.67.9 1.99 1.97L39 22v5c1.1 0 2 .91 2 2v8H3v-8c0-1.09.9-2 2-2v-5zM37 15c0-.44-.56-1-1-1H8c-.44 0-1 .56-1 1l-1 7c0 .44.56 1 1 1h30c.44 0 1-.56 1-1zm-4.01 18.61c0 .22.17.4.37.4h5.28c.2 0 .36-.18.36-.4v-1.2c0-.22-.16-.4-.36-.4h-5.28c-.2 0-.37.18-.37.4zM14 35h16v-8c0-1.09-.9-2-2-2H16c-1.1 0-2 .91-2 2zm-9-2.59v1.2c0 .22.16.4.36.4h5.28c.2 0 .37-.18.37-.4v-1.2c0-.22-.17-.4-.37-.4H5.36c-.2 0-.36.18-.36.4zM42 38v4l-12 2H14L2 42v-4zM11 15h3l-1 7h-3zm5 0h1l-1 7h-1z"/><path fill="#0499c5" d="M33 7l.73-1.56C34 4.42 32.55 3.78 32 4.78L31 7v5H13V7l-1-2.22c-.55-1-2-.36-1.73.66L11 7v5H7l-2 1V2c0-1.09.9-2 2-2h30c1.1 0 2 .91 2 2v11l-2-1h-4z"/></svg>